<?xml version="1.0" encoding="UTF-8"?>
<svg id="Camada_2" data-name="Camada 2" xmlns="http://www.w3.org/2000/svg" viewBox="0 0 1767.76 1393.37">
  <defs>
    <style>
      .cls-1 {
        fill: #fff;
        stroke-width: 0px;
      }
    </style>
  </defs>
  <g id="Camada_1-2" data-name="Camada 1">
    <g>
      <g>
        <path class="cls-1" d="M459.96,890.38h80.48v503h-80.48v-503ZM822.12,1232.92c0,76.98-64.73,83.12-83.98,83.12-48.11,0-56.86-45.03-56.86-72.19v-192.51h-80.48v192.11c0,47.68,14.97,87.04,41.21,113.28,23.18,23.2,57.91,35.87,95.53,35.87,26.68,0,64.46-8.31,84.58-26.68v27.46h80.48v-342.04h-80.48v181.58ZM1063.56,930.62h-80.48v120.72h-60.36v80.48h60.36v261.56h80.48v-261.56h60.36v-80.48h-60.36v-120.72ZM1377.37,1291.1c-17.52,15.75-40.66,24.49-66.05,24.49-55.97,0-97.08-41.11-97.08-97.54s39.8-95.81,97.08-95.81c24.95,0,48.53,8.31,66.5,24.06l12.21,10.5,54.26-54.24-13.58-12.25c-31.93-28.83-74.32-45.01-119.41-45.01-100.6,0-173.66,72.59-173.66,172.33s74.81,174.5,173.66,174.5c45.93,0,88.77-16.18,120.3-45.47l13.12-12.25-55.11-54.2-12.23,10.91ZM1731.54,1081.15c-23.18-23.18-50.34-35.85-87.96-35.85-26.68,0-56.9,8.31-77.02,26.66v-181.58h-80.48v503h80.48v-188.42c0-76.98,54.69-83.1,73.94-83.1,48.11,0,46.78,45.05,46.78,72.17v199.35h80.48v-198.93c0-47.68-9.96-87.04-36.22-113.3"/>
        <path class="cls-1" d="M1308.66,1160.75c32.14,0,58.19,26.05,58.19,58.19s-26.05,58.19-58.19,58.19-58.19-26.05-58.19-58.19,26.05-58.19,58.19-58.19"/>
        <path class="cls-1" d="M347.29,1267.04c-30.6,31.49-72.17,48.55-115.91,48.55-89.65,0-154.84-70.42-154.84-167.08s65.19-167.52,154.84-167.52c43.32,0,84.42,17.04,115.49,48.11l12.23,12.25,53.8-53.8-11.81-12.25c-44.61-45.93-104.97-70.84-169.71-70.84C99.29,904.46,0,1009.43,0,1148.94s99.73,243.63,231.38,243.63c65.19,0,125.55-25.35,170.15-71.28l11.81-12.25-53.36-54.67-12.7,12.68Z"/>
      </g>
      <g>
        <path class="cls-1" d="M20.96,749.61H0v-186.71h63c32.37,0,53.57,22,53.57,55.64,0,26.01-12.69,46.19-33.77,53.57l38.89,77.5h-24.57l-35.98-73.88H20.96v73.88ZM20.96,655.16h40.17c21.54,0,33.77-12.94,33.77-35.84s-13.04-35.71-34.7-35.71H20.96v71.55Z"/>
        <path class="cls-1" d="M275.61,749.61h-104.1v-186.71h104.1v20.96h-83.14v59.91h78.84v20.7h-78.84v64.18h83.14v20.96Z"/>
        <path class="cls-1" d="M380.38,749.61l-61.95-186.71h22.01l49.96,158.37h.7l49.96-158.37h22.01l-61.95,186.71h-20.73Z"/>
        <path class="cls-1" d="M510.89,749.61v-186.71h20.96v186.71h-20.96Z"/>
        <path class="cls-1" d="M697.18,749.61h-104.1v-186.71h104.1v20.96h-83.14v59.91h78.84v20.7h-78.84v64.18h83.14v20.96Z"/>
        <path class="cls-1" d="M807.9,749.61h-19.8l-45.76-186.71h21.89l33.65,152.42h.93l37.85-152.42h21.19l37.85,152.42h.93l33.65-152.42h21.89l-45.76,186.71h-19.8l-38.78-148.15h-1.16l-38.78,148.15Z"/>
        <path class="cls-1" d="M1106.44,749.61h-104.1v-186.71h104.1v20.96h-83.14v59.91h78.84v20.7h-78.84v64.18h83.14v20.96Z"/>
        <path class="cls-1" d="M1219.14,562.9c49.84,0,79.3,34.55,79.3,93.29s-29.35,93.42-79.3,93.42h-56.48v-186.71h56.48ZM1183.62,728.65h34.12c38.08,0,59.27-25.88,59.27-72.2s-21.08-72.59-59.27-72.59h-34.12v144.78Z"/>
        <path class="cls-1" d="M1578.91,656.32c0,59.26-29.81,96.39-77.44,96.39s-77.44-37.13-77.44-96.39,29.81-96.52,77.44-96.52,77.44,37.26,77.44,96.52ZM1445.57,656.32c0,45.93,21.54,74.92,55.9,74.92s55.9-28.98,55.9-74.92-21.54-75.04-55.9-75.04-55.9,28.98-55.9,75.04Z"/>
        <path class="cls-1" d="M1633.61,749.61v-186.71h20.38l91.99,146.6h1.05v-146.6h20.73v186.71h-20.38l-91.99-146.08h-1.05v146.08h-20.73Z"/>
      </g>
      <g>
        <path class="cls-1" d="M300.71,108.64c2.81,8.68.41,18.22-6.2,24.52l-51.83,50.45c-1.72,1.62-2.5,4-2.09,6.32l12.24,71.35c1.45,8.9-2.26,17.86-9.57,23.13-7.31,5.29-16.97,5.99-24.98,1.84l-64.11-33.72c-2.08-1.09-4.57-1.09-6.65,0l-64.11,33.72c-8.01,4.15-17.67,3.45-24.98-1.84-7.31-5.28-11.02-14.24-9.57-23.13l12.24-71.35c.45-2.28-.23-4.65-1.84-6.32L7.2,133.17c-6.49-6.34-8.83-15.8-6.04-24.43,2.81-8.62,10.27-14.91,19.25-16.2l71.63-10.41c2.34-.34,4.35-1.83,5.42-3.95L129.51,13.28c4.01-8.13,12.28-13.28,21.35-13.28s17.34,5.15,21.35,13.28l32.05,64.89c1.06,2.12,3.08,3.61,5.42,3.95l71.63,10.41c9.04,1.17,16.59,7.45,19.4,16.11h0Z"/>
        <path class="cls-1" d="M667.18,108.64c2.81,8.68.41,18.22-6.2,24.52l-51.83,50.45c-1.72,1.62-2.5,4-2.09,6.32l12.24,71.35c1.45,8.9-2.26,17.86-9.57,23.13-7.31,5.29-16.97,5.99-24.98,1.84l-64.11-33.72c-2.08-1.09-4.57-1.09-6.65,0l-64.11,33.72c-8.01,4.15-17.67,3.45-24.98-1.84-7.31-5.28-11.02-14.24-9.57-23.13l12.24-71.35c.45-2.28-.23-4.65-1.84-6.32l-52.07-50.45c-6.49-6.34-8.83-15.8-6.04-24.43,2.81-8.62,10.27-14.91,19.25-16.2l71.63-10.41c2.34-.34,4.35-1.83,5.42-3.95l32.05-64.89c4.01-8.13,12.28-13.28,21.35-13.28s17.34,5.15,21.35,13.28l32.05,64.89c1.06,2.12,3.08,3.61,5.42,3.95l71.63,10.41c9.04,1.17,16.59,7.45,19.4,16.11h0Z"/>
        <path class="cls-1" d="M1033.66,108.64c2.81,8.68.41,18.22-6.2,24.52l-51.83,50.45c-1.72,1.62-2.5,4-2.09,6.32l12.24,71.35c1.45,8.9-2.26,17.86-9.57,23.13-7.31,5.29-16.97,5.99-24.98,1.84l-64.11-33.72c-2.08-1.09-4.57-1.09-6.65,0l-64.11,33.72c-8.01,4.15-17.67,3.45-24.98-1.84-7.31-5.28-11.02-14.24-9.57-23.13l12.24-71.35c.45-2.28-.23-4.65-1.84-6.32l-52.07-50.45c-6.49-6.34-8.83-15.8-6.04-24.43,2.81-8.62,10.27-14.91,19.25-16.2l71.63-10.41c2.34-.34,4.35-1.83,5.42-3.95l32.05-64.89c4.01-8.13,12.28-13.28,21.35-13.28s17.34,5.15,21.35,13.28l32.05,64.89c1.06,2.12,3.08,3.61,5.42,3.95l71.63,10.41c9.04,1.17,16.59,7.45,19.4,16.11h0Z"/>
        <path class="cls-1" d="M1400.13,108.64c2.81,8.68.41,18.22-6.2,24.52l-51.83,50.45c-1.72,1.62-2.5,4-2.09,6.32l12.24,71.35c1.45,8.9-2.26,17.86-9.57,23.13-7.31,5.29-16.97,5.99-24.98,1.84l-64.11-33.72c-2.08-1.09-4.57-1.09-6.65,0l-64.11,33.72c-8.01,4.15-17.67,3.45-24.98-1.84-7.31-5.28-11.02-14.24-9.57-23.13l12.24-71.35c.45-2.28-.23-4.65-1.84-6.32l-52.07-50.45c-6.49-6.34-8.83-15.8-6.04-24.43,2.81-8.62,10.27-14.91,19.25-16.2l71.63-10.41c2.34-.34,4.35-1.83,5.42-3.95l32.05-64.89c4.01-8.13,12.28-13.28,21.35-13.28s17.34,5.15,21.35,13.28l32.05,64.89c1.06,2.12,3.08,3.61,5.42,3.95l71.63,10.41c9.04,1.17,16.59,7.45,19.4,16.11h0Z"/>
        <path class="cls-1" d="M1766.6,108.64c2.81,8.68.41,18.22-6.2,24.52l-51.83,50.45c-1.72,1.62-2.5,4-2.09,6.32l12.24,71.35c1.45,8.9-2.26,17.86-9.57,23.13-7.31,5.29-16.97,5.99-24.98,1.84l-64.11-33.72c-2.08-1.09-4.57-1.09-6.65,0l-64.11,33.72c-8.01,4.15-17.67,3.45-24.98-1.84-7.31-5.28-11.02-14.24-9.57-23.13l12.24-71.35c.45-2.28-.23-4.65-1.84-6.32l-52.07-50.45c-6.49-6.34-8.83-15.8-6.04-24.43,2.81-8.62,10.27-14.91,19.25-16.2l71.63-10.41c2.34-.34,4.35-1.83,5.42-3.95l32.05-64.89c4.01-8.13,12.28-13.28,21.35-13.28s17.34,5.15,21.35,13.28l32.05,64.89c1.06,2.12,3.08,3.61,5.42,3.95l71.63,10.41c9.04,1.17,16.59,7.45,19.4,16.11h0Z"/>
      </g>
    </g>
  </g>
</svg>