<?xml version="1.0" encoding="UTF-8"?>
<svg id="Camada_2" data-name="Camada 2" xmlns="http://www.w3.org/2000/svg" viewBox="0 0 409.6 490.59">
  <defs>
    <style>
      .cls-1 {
        fill: #7a7a7a;
      }

      .cls-1, .cls-2 {
        stroke-width: 0px;
      }

      .cls-2 {
        fill: #fff;
      }
    </style>
  </defs>
  <g id="layer">
    <g>
      <g>
        <path class="cls-2" d="M72.69,350.58c.82,1.18,1.91,2.11.27.19-.09-.06-.18-.12-.27-.19Z"/>
        <path class="cls-2" d="M72.59,351.43c.13.99.33,1.62.09.16-.03-.05-.06-.1-.09-.16Z"/>
        <path class="cls-2" d="M71.55,349.73c-.08-.06-.15-.12-.22-.17-2.25-.97-1.02-.32.22.17Z"/>
        <path class="cls-2" d="M123.62,329.81c-.64.12-1.31.21-1.92.29-3.3.5-6.6,1-9.9,1.7-6.3,1.2-12.5,2.7-18.6,4.7-2.43.75-4.78,1.59-7.13,2.49-.16.07-.31.13-.47.21-1.1.6-2.2,1.1-3.3,1.7-2.11,1.15-4.13,2.4-6.15,3.74-.47.42-.93.84-1.35,1.26-.47.42-.91.84-1.33,1.28-.33.54-.65,1.07-.94,1.61-.02.09-.04.17-.06.26,0,.31,0,.61,0,.91.13.07.26.15.39.21.76.23,1.53.45,2.3.64,1,.02,4.86.39,6.14.39,1.54-.07,3.13-.14,4.73-.27,1.25-.21,4.59-.7,5.57-.93,2.6-.6,5.2-1.2,7.8-2,3.06-.99,6.12-1.98,9.09-3.16.1-.04.2-.09.31-.14,1.3-.6,2.6-1.2,3.9-1.8,4.88-2.44,9.58-5.07,14.11-8.12.06-.06.13-.12.19-.18,1.2-1.1,2.3-2.3,3.4-3.6.42-.47,1.08-1.27,1.73-2.08-1.28.12-2.56.24-3.83.38-1.58.15-3.12.32-4.68.51Z"/>
        <path class="cls-2" d="M334.4,361.63c3.06,2.39,1.63,1.23,0,0h0Z"/>
        <path class="cls-2" d="M409.5,371.5V38.1c0-21.1-17.1-38.1-38.1-38.1H38.1C17,0,0,17.1,0,38.1v333.4c0,21.1,17.1,38.1,38.1,38.1h333.4c21.1,0,38.1-17.1,38.1-38.1h-.1ZM369.2,376.2c-9.4,5.5-23.7,2.8-28.8-7.5-.45-.9-.97-1.78-1.53-2.63-1.63-1.79-3.4-3.5-5.25-5.02-.34-.25-.66-.48-.92-.65-1.3-1-2.8-1.9-4.2-2.7-3.1-1.8-6.3-3.6-9.6-5.1-1.9-.9-9.7-4.2-1.7-.9-1.9-.8-3.8-1.6-5.7-2.3-4.1-1.5-8.2-3-12.4-4.3-9.2-2.9-18.4-5.4-27.8-7.4-7.9-1.8-15.8-3.3-23.8-4.6-4.3-.7-8.6-1.3-12.9-1.9,8,1,.4,0-1.4-.2-2.1-.2-4.1-.5-6.1-.7-14.21-1.52-28.56-2.54-42.94-2.94-3.29,5.18-6.67,10.3-10.16,15.34-5.6,8.1-11.3,16.9-18.8,23.2-18.3,15.5-43.2,24.5-66.8,27-22.9,2.3-51.7-6.6-56.8-32.3-3.1-15.8.6-30.2,11.2-42.3,8.6-9.6,20.7-15.5,32.5-20,12.1-4.6,24.9-7.3,37.7-9.1,15.67-2.18,31.42-3.43,47.21-3.85,2.69-4.61,5.35-9.23,7.99-13.85,17.9-31.6,34.8-63.9,51.4-96.2,25.4-49.4,49-99.7,74.6-149,5.3-10.1,19.3-13.1,28.8-7.6,10.2,6,12.8,18.6,7.5,28.8-20.4,39.4-39.3,79.5-59.3,119.1-16.8,33.2-33.9,66.4-51.7,99.1-3.78,6.94-7.57,13.91-11.41,20.85,2.24.17,4.47.35,6.71.55,33.1,2.9,66.8,7.9,98.5,18.4,13.1,4.4,26.3,9.5,38,16.8,9.9,6.2,20.1,14.4,25.4,25.1,5.2,10.3,2.9,22.7-7.5,28.8Z"/>
      </g>
      <g>
        <path class="cls-1" d="M164.5,432.34v56.67h8.11v-57.44h-7.88c-.31.08-.31.38-.23.76Z"/>
        <path class="cls-1" d="M228.44,458.88c-3.21-7.65-16.37-7.88-22.03-2.52-8.18,7.72-7.19,26.08,1.76,31.89,3.21,2.07,10.25,3.67,15.68.76,1.76-.99,2.91-2.91,4.51-4.05v4.05h8.11v-57.44h-7.88c-.46,8.64,0,18.28-.15,27.3ZM224.92,481.13c-3.44,2.91-10.71,2.45-13.46-1.53-3.44-4.97-1.91-14.23.99-17.21,1.15-1.15,2.22-1.84,5.28-2.29,3.75-.46,7.19.92,8.87,3.29,3.14,4.59,2.52,14.23-1.68,17.74Z"/>
        <path class="cls-1" d="M.91,442.74c-.31.08-.31.38-.31.76v44.97h11.85c.15-4.97-.38-10.63.23-15.22,7.88-.08,15.37.69,19.96-2.29,5.66-3.59,8.26-13.77,4.59-20.96-5.12-10.02-21.8-6.88-36.33-7.27ZM24.84,462.7c-3.21,2.52-7.5.69-12.39,1.22v-11.4c3.9.54,7.8-.84,10.86.31,3.67,1.3,4.59,7.5,1.53,9.87Z"/>
        <path class="cls-1" d="M69.66,472.57c-2.52-9.94-5.28-19.66-7.57-29.83h-17.67c-.61,14.76-.08,30.59-.31,45.74h11.4c.15-11.32-.31-23.25.23-34.19,2.98,11.55,6.2,22.79,9.33,34.19h9.33c3.06-11.32,6.04-22.64,9.33-33.65v33.65h11.4v-45.74h-17.67c-2.6,9.87-4.97,20.11-7.8,29.83Z"/>
        <path class="cls-1" d="M115.4,477.85v-8.34h22.26v-9.33h-22.26c.15-2.45-.38-5.51.31-7.57h24.02v-9.87h-36.18c-.61,14.76-.08,30.59-.31,45.81h37.17v-10.4c-8.26-.15-17.13.31-25.01-.31Z"/>
        <path class="cls-1" d="M281.29,472.57c.23-13.77-7.19-21.11-19.96-20.04-8.8.84-15.6,7.57-16.44,16.21-.69,7.5,1.68,15.14,7.57,18.97,9.56,6.27,25.32,1.38,28.3-7.88-2.14-1.38-4.36-2.68-6.81-3.75-2.6,9.18-21.64,9.33-20.5-3.29,9.25-.15,19.12.38,27.84-.23ZM272.72,466.99h-18.74c.23-9.48,18.59-9.87,18.74,0Z"/>
        <path class="cls-1" d="M297.5,458.65v-4.82h-8.11v35.18h8.11c.76-9.71-2.45-26.23,4.82-28.83,2.45-.84,5.35-.23,7.57.99.84-2.45,2.14-4.44,2.75-7.04-5.66-3.14-13.84-1.07-15.14,4.51Z"/>
        <path class="cls-1" d="M184.23,489.01h8.11v-35.18h-7.88c-.61,11.24-.08,23.56-.23,35.18Z"/>
        <path class="cls-1" d="M182.93,448.78h4.59c3.75-3.37,7.65-6.5,10.86-10.33h-8.11c-2.68,3.21-4.97,6.81-7.34,10.33Z"/>
        <path class="cls-1" d="M324.78,458.47l6.56-.73c.8-5.25,2.77-12.75,4.3-17.05l-4.08.44c-1.97,3.35-5.1,11.22-6.77,17.34Z"/>
        <path class="cls-1" d="M349.54,485.13l3.79-3.5c9.98-9.61,16.32-16.68,16.32-25.42,0-6.77-4.3-13.77-14.5-13.77-5.46,0-10.12,2.04-13.4,4.81l2.04,4.52c2.19-1.82,5.75-4.01,10.05-4.01,7.07,0,9.4,4.44,9.4,9.25-.07,7.14-5.54,13.26-17.63,24.77l-5.03,4.88v3.93h30.23v-5.32h-21.27v-.15Z"/>
        <path class="cls-1" d="M386.91,485.28v-.15l3.79-3.5c9.98-9.61,16.32-16.68,16.32-25.42,0-6.77-4.3-13.77-14.5-13.77-5.46,0-10.12,2.04-13.4,4.81l2.04,4.52c2.19-1.82,5.75-4.01,10.05-4.01,7.07,0,9.4,4.44,9.4,9.25-.07,7.14-5.54,13.26-17.63,24.77l-5.03,4.88v3.93h30.23v-5.32h-21.27Z"/>
      </g>
    </g>
  </g>
</svg>