<svg width="630" height="234" viewBox="0 0 630 234" fill="none" xmlns="http://www.w3.org/2000/svg">
<path d="M16.8194 56.1702V7.29023H0.109375V1.99023H39.4194V7.29023H22.7094V56.1702H16.8194Z" fill="white"/>
<path d="M58.9981 56.6098C54.8781 56.6098 51.6281 55.9998 49.2481 54.7698C46.8681 53.5398 45.1581 51.4598 44.1281 48.5098C43.0981 45.5698 42.5781 41.5398 42.5781 36.4398C42.5781 31.3398 43.1081 27.1798 44.1581 24.2598C45.2081 21.3398 46.9381 19.2898 49.3481 18.1098C51.7481 16.9298 54.9881 16.3398 59.0681 16.3398C62.5481 16.3398 65.3881 16.7298 67.5681 17.5198C69.7481 18.3098 71.3681 19.6398 72.4281 21.5298C73.4781 23.4198 74.0081 26.0298 74.0081 29.3698C74.0081 31.6798 73.5581 33.5298 72.6481 34.9298C71.7381 36.3298 70.4381 37.3298 68.7481 37.9498C67.0581 38.5698 65.0581 38.8698 62.7481 38.8698H48.3881C48.4381 42.0598 48.7781 44.6198 49.4181 46.5598C50.0581 48.4998 51.2181 49.8998 52.9181 50.7598C54.6081 51.6198 57.0981 52.0498 60.3881 52.0498H73.0481V55.5798C70.7881 55.8798 68.5781 56.1198 66.4181 56.3198C64.2581 56.5098 61.7781 56.6098 58.9881 56.6098H58.9981ZM48.3281 35.0398H62.3181C64.5281 35.0398 66.1581 34.6298 67.2181 33.8198C68.2681 33.0098 68.7981 31.5498 68.7981 29.4398C68.7981 27.1798 68.4681 25.4298 67.8081 24.1798C67.1481 22.9298 66.1181 22.0498 64.7181 21.5298C63.3181 21.0098 61.4381 20.7598 59.0881 20.7598C56.3381 20.7598 54.1781 21.1598 52.6081 21.9698C51.0381 22.7798 49.9281 24.2098 49.2981 26.2798C48.6581 28.3398 48.3381 31.2598 48.3381 35.0398H48.3281Z" fill="white"/>
<path d="M95.8792 56.6099C93.6692 56.6099 91.6092 56.3199 89.6992 55.7299C87.7892 55.1399 86.1192 54.1099 84.6892 52.6399C83.2692 51.1699 82.1592 49.1299 81.3792 46.5299C80.5892 43.9299 80.1992 40.6199 80.1992 36.5899C80.1992 32.5599 80.5692 29.1699 81.2992 26.5399C82.0392 23.9199 83.0892 21.8699 84.4692 20.3899C85.8392 18.9199 87.5092 17.8899 89.4792 17.2999C91.4392 16.7099 93.6292 16.4199 96.0292 16.4199C97.9892 16.4199 100.129 16.5099 102.429 16.6799C104.739 16.8499 106.939 17.1099 109.059 17.4499V20.9099H97.5792C95.0792 20.9099 92.9692 21.3299 91.2492 22.1599C89.5292 22.9999 88.2292 24.5499 87.3492 26.8299C86.4692 29.1099 86.0192 32.4099 86.0192 36.7299C86.0192 41.0499 86.4892 44.0899 87.4192 46.2999C88.3492 48.5099 89.6792 50.0199 91.3892 50.8299C93.0992 51.6399 95.1892 52.0399 97.6492 52.0399H109.649V55.4299C108.519 55.6299 107.209 55.8199 105.709 56.0199C104.209 56.2199 102.629 56.3599 100.959 56.4599C99.2892 56.5599 97.5992 56.6099 95.8792 56.6099Z" fill="white"/>
<path d="M115.471 56.17V0H121.291V21.2C123.111 19.87 125.281 18.71 127.801 17.7C130.331 16.69 132.961 16.19 135.711 16.19C138.461 16.19 140.731 16.78 142.521 17.96C144.311 19.14 145.641 20.73 146.491 22.75C147.351 24.76 147.781 27 147.781 29.45V56.17H141.961V30.04C141.961 28.37 141.631 26.9 140.971 25.62C140.311 24.34 139.361 23.34 138.141 22.6C136.921 21.86 135.441 21.5 133.721 21.5C132.101 21.5 130.601 21.66 129.231 21.98C127.861 22.3 126.531 22.74 125.251 23.31C123.971 23.87 122.651 24.55 121.281 25.33V56.17H115.461H115.471Z" fill="white"/>
<path d="M156.538 56.1704V16.8604H161.098L162.348 21.2004C164.208 19.8704 166.398 18.7104 168.898 17.7004C171.398 16.6904 173.998 16.1904 176.698 16.1904C179.598 16.1904 181.928 16.8004 183.688 18.0304C185.458 19.2604 186.758 20.8804 187.588 22.8904C188.418 24.9004 188.838 27.0904 188.838 29.4404V56.1604H183.018V30.1004C183.018 28.4304 182.688 26.9504 182.028 25.6504C181.368 24.3504 180.428 23.3304 179.228 22.5904C178.028 21.8504 176.538 21.4904 174.778 21.4904C173.158 21.4904 171.648 21.6504 170.248 21.9704C168.848 22.2904 167.528 22.7304 166.268 23.3004C165.018 23.8604 163.708 24.5404 162.328 25.3204V56.1604H156.508H156.538V56.1704Z" fill="white"/>
<path d="M213.221 56.6098C210.371 56.6098 207.881 56.3198 205.751 55.7298C203.621 55.1398 201.841 54.1098 200.411 52.6398C198.991 51.1698 197.931 49.1198 197.241 46.4898C196.551 43.8698 196.211 40.5198 196.211 36.4398C196.211 32.3598 196.551 28.9398 197.241 26.3198C197.931 23.6998 198.981 21.6598 200.411 20.2098C201.831 18.7598 203.611 17.7598 205.751 17.1898C207.881 16.6298 210.381 16.3398 213.221 16.3398C216.061 16.3398 218.561 16.6398 220.691 17.2198C222.821 17.8098 224.601 18.8298 226.031 20.2798C227.451 21.7298 228.521 23.7598 229.231 26.3898C229.941 29.0198 230.301 32.3698 230.301 36.4398C230.301 40.5098 229.941 43.9398 229.231 46.5598C228.521 49.1898 227.461 51.2198 226.061 52.6698C224.661 54.1198 222.881 55.1398 220.721 55.7298C218.561 56.3198 216.061 56.6098 213.211 56.6098H213.221ZM213.221 51.8198C215.041 51.8198 216.641 51.6498 218.041 51.3098C219.441 50.9698 220.601 50.2798 221.541 49.2498C222.471 48.2198 223.181 46.6698 223.671 44.6098C224.161 42.5498 224.411 39.8198 224.411 36.4398C224.411 33.0598 224.161 30.2798 223.671 28.2698C223.181 26.2598 222.471 24.7398 221.541 23.7098C220.611 22.6798 219.441 21.9898 218.041 21.6498C216.641 21.3098 215.031 21.1298 213.221 21.1298C211.411 21.1298 209.741 21.2998 208.361 21.6498C206.991 21.9898 205.831 22.6798 204.901 23.7098C203.971 24.7398 203.261 26.2598 202.771 28.2698C202.281 30.2798 202.031 33.0098 202.031 36.4398C202.031 39.8698 202.271 42.5498 202.771 44.6098C203.261 46.6698 203.971 48.2198 204.901 49.2498C205.831 50.2798 206.991 50.9698 208.361 51.3098C209.731 51.6498 211.351 51.8198 213.221 51.8198Z" fill="white"/>
<path d="M248.189 56.24C245.929 56.24 244.039 55.84 242.519 55.03C240.999 54.22 239.839 52.9 239.059 51.05C238.269 49.21 237.879 46.72 237.879 43.58V0H243.699V42.84C243.699 45.2 243.919 46.97 244.359 48.18C244.799 49.38 245.439 50.22 246.269 50.68C247.099 51.15 248.079 51.45 249.209 51.6L253.179 52.04V56.24H248.169H248.189Z" fill="white"/>
<path d="M272.92 56.6098C270.07 56.6098 267.58 56.3198 265.45 55.7298C263.32 55.1398 261.54 54.1098 260.11 52.6398C258.69 51.1698 257.63 49.1198 256.94 46.4898C256.25 43.8698 255.91 40.5198 255.91 36.4398C255.91 32.3598 256.25 28.9398 256.94 26.3198C257.63 23.6998 258.68 21.6598 260.11 20.2098C261.53 18.7598 263.31 17.7598 265.45 17.1898C267.58 16.6298 270.08 16.3398 272.92 16.3398C275.76 16.3398 278.26 16.6398 280.39 17.2198C282.52 17.8098 284.3 18.8298 285.73 20.2798C287.15 21.7298 288.22 23.7598 288.93 26.3898C289.64 29.0198 290 32.3698 290 36.4398C290 40.5098 289.64 43.9398 288.93 46.5598C288.22 49.1898 287.16 51.2198 285.76 52.6698C284.36 54.1198 282.58 55.1398 280.42 55.7298C278.26 56.3198 275.76 56.6098 272.91 56.6098H272.92ZM272.92 51.8198C274.74 51.8198 276.34 51.6498 277.74 51.3098C279.14 50.9698 280.3 50.2798 281.24 49.2498C282.17 48.2198 282.88 46.6698 283.37 44.6098C283.86 42.5498 284.11 39.8198 284.11 36.4398C284.11 33.0598 283.86 30.2798 283.37 28.2698C282.88 26.2598 282.17 24.7398 281.24 23.7098C280.31 22.6798 279.14 21.9898 277.74 21.6498C276.34 21.3098 274.73 21.1298 272.92 21.1298C271.11 21.1298 269.44 21.2998 268.06 21.6498C266.69 21.9898 265.53 22.6798 264.6 23.7098C263.67 24.7398 262.96 26.2598 262.47 28.2698C261.98 30.2798 261.73 33.0098 261.73 36.4398C261.73 39.8698 261.97 42.5498 262.47 44.6098C262.96 46.6698 263.67 48.2198 264.6 49.2498C265.53 50.2798 266.69 50.9698 268.06 51.3098C269.43 51.6498 271.05 51.8198 272.92 51.8198Z" fill="white"/>
<path d="M307.229 74.1998C304.679 74.1998 302.43 73.8398 300.49 73.1298C298.55 72.4198 297.03 71.3398 295.93 69.8898C294.83 68.4398 294.27 66.6398 294.27 64.4798V62.7098C294.27 60.4498 294.9 58.5598 296.15 57.0398C297.4 55.5198 298.98 54.3798 300.9 53.6198C302.81 52.8598 304.779 52.4798 306.789 52.4798L308.26 54.8398C306.79 54.8398 305.41 55.0698 304.14 55.5398C302.86 56.0098 301.82 56.7598 301.01 57.7898C300.2 58.8198 299.799 60.1498 299.799 61.7698V63.3898C299.799 65.7498 300.589 67.4298 302.159 68.4298C303.729 69.4298 305.86 69.9398 308.56 69.9398H317.69C320.63 69.9398 322.95 69.3798 324.65 68.2498C326.34 67.1198 327.19 65.3498 327.19 62.9498V61.4798C327.19 60.1098 326.92 58.9298 326.38 57.9498C325.84 56.9698 324.94 56.2098 323.69 55.6698C322.44 55.1298 320.68 54.8598 318.43 54.8598H306.58C303.54 54.8598 301.169 54.2098 299.479 52.9098C297.789 51.6098 296.94 49.9298 296.94 47.8698C296.94 45.8098 297.519 44.3598 298.669 43.2298C299.819 42.0998 301.45 41.3198 303.57 40.8698C301.75 40.1298 300.329 39.1398 299.299 37.8898C298.269 36.6398 297.559 35.2898 297.169 33.8398C296.779 32.3898 296.58 30.9298 296.58 29.4598C296.58 26.4198 297.189 23.9598 298.419 22.0998C299.649 20.2398 301.4 18.8898 303.68 18.0498C305.96 17.2198 308.65 16.7998 311.74 16.7998H332.72V20.1098L323.89 20.8498C324.53 21.2898 325.24 21.8698 326.02 22.5798C326.8 23.2898 327.479 24.2998 328.039 25.5998C328.599 26.8998 328.89 28.6798 328.89 30.9398C328.89 32.9498 328.459 34.8698 327.599 36.6798C326.739 38.4998 325.309 39.9798 323.289 41.1298C321.279 42.2798 318.51 42.8598 314.97 42.8598H308.71C306.65 42.8598 305.02 43.1698 303.81 43.7798C302.61 44.3898 302.01 45.4898 302.01 47.0598C302.01 48.2398 302.45 49.0698 303.34 49.5598C304.22 50.0498 305.16 50.2998 306.14 50.2998H319.169C322.209 50.2998 324.73 50.6898 326.72 51.4798C328.71 52.2698 330.2 53.4598 331.21 55.0498C332.22 56.6398 332.72 58.6698 332.72 61.1198V62.7398C332.72 66.3198 331.51 69.1298 329.08 71.1698C326.65 73.2098 323.03 74.2298 318.22 74.2298H307.25L307.229 74.1998ZM309.95 38.3498H314.37C316.87 38.3498 318.78 37.9698 320.08 37.2098C321.38 36.4498 322.28 35.4598 322.77 34.2298C323.26 32.9998 323.51 31.6798 323.51 30.2598C323.51 28.0498 323.15 26.2998 322.44 24.9998C321.73 23.6998 320.73 22.7698 319.46 22.1998C318.18 21.6398 316.709 21.3498 315.039 21.3498H310.84C308.04 21.3498 305.85 21.9798 304.25 23.2298C302.65 24.4798 301.859 26.6498 301.859 29.7398C301.859 32.8298 302.58 34.9798 304.03 36.3298C305.48 37.6798 307.45 38.3598 309.96 38.3598L309.95 38.3498Z" fill="white"/>
<path d="M348.31 73.6096L353.32 56.1596C352.09 56.1096 350.82 55.8196 349.49 55.2796C348.16 54.7396 346.94 53.8096 345.81 52.4796C344.68 51.1496 343.75 49.3096 343.01 46.9596L333.59 16.8496H339.7L348.46 45.7096C349 47.2296 349.58 48.3596 350.19 49.0996C350.8 49.8396 351.43 50.3496 352.07 50.6496C352.71 50.9496 353.26 51.0996 353.73 51.1296C354.2 51.1596 354.48 51.1696 354.58 51.1696L364.67 16.8696H370.63L356.27 66.3396L352.88 73.6296H348.32V73.6096H348.31Z" fill="white"/>
<path d="M391.369 56.1697V14.1297C391.369 11.7297 391.739 9.70969 392.469 8.08969C393.199 6.46969 394.189 5.18969 395.409 4.25969C396.639 3.32969 397.989 2.66969 399.459 2.26969C400.929 1.87969 402.379 1.67969 403.799 1.67969C405.569 1.67969 407.759 1.68969 410.389 1.71969C413.009 1.74969 415.809 1.82969 418.779 1.97969C421.749 2.12969 424.609 2.34969 427.359 2.63969V11.7697H406.819C405.299 11.7697 404.159 12.1697 403.399 12.9797C402.639 13.7897 402.259 14.8597 402.259 16.1797V25.4497L423.829 26.0397V34.6497L402.259 35.2397V56.1497H391.359V56.1697H391.369Z" fill="white"/>
<path d="M439.961 56.6099C436.971 56.6099 434.541 55.7299 432.671 53.9599C430.801 52.1899 429.871 49.7399 429.871 46.5999V43.0699C429.871 40.0799 430.921 37.6099 433.041 35.6699C435.151 33.7299 438.441 32.7599 442.901 32.7599H452.991V30.0399C452.991 28.8099 452.771 27.7999 452.331 26.9899C451.891 26.1799 451.071 25.5899 449.861 25.2199C448.661 24.8499 446.831 24.6699 444.381 24.6699H432.531V18.3399C434.441 17.7499 436.661 17.2399 439.191 16.7899C441.721 16.3499 444.771 16.1299 448.351 16.1299C451.641 16.1299 454.451 16.5199 456.781 17.3099C459.111 18.0999 460.881 19.4399 462.081 21.3599C463.281 23.2699 463.881 25.9199 463.881 29.3099V56.1799H455.271L453.501 51.9799C453.161 52.3699 452.571 52.8199 451.731 53.3099C450.891 53.7999 449.881 54.2999 448.671 54.8199C447.471 55.3399 446.121 55.7699 444.621 56.1099C443.121 56.4499 441.561 56.6299 439.951 56.6299V56.6099H439.961ZM445.481 49.0199C445.971 49.0199 446.521 48.9599 447.141 48.8399C447.751 48.7199 448.391 48.5699 449.051 48.3999C449.711 48.2299 450.331 48.0599 450.891 47.8799C451.451 47.7099 451.921 47.5499 452.291 47.3999C452.661 47.2499 452.891 47.1599 452.991 47.1099V37.9099L446.361 38.3499C444.451 38.4999 443.031 38.9899 442.131 39.8199C441.221 40.6599 440.771 41.7799 440.771 43.2099V44.8299C440.771 45.8099 440.981 46.6199 441.401 47.2599C441.821 47.8999 442.381 48.3499 443.091 48.6199C443.801 48.8899 444.601 49.0199 445.481 49.0199Z" fill="white"/>
<path d="M484.201 56.6103C482.971 56.6103 481.651 56.5703 480.221 56.5003C478.801 56.4303 477.371 56.3203 475.951 56.1703C474.531 56.0203 473.2 55.8403 471.98 55.6203C470.75 55.4003 469.721 55.1403 468.891 54.8503V48.4503H486.41C487.44 48.4503 488.291 48.3603 488.951 48.1903C489.611 48.0203 490.1 47.7003 490.42 47.2303C490.74 46.7603 490.901 46.0903 490.901 45.2103V43.9603C490.901 42.9803 490.58 42.2203 489.94 41.6803C489.3 41.1403 488.12 40.8703 486.41 40.8703H480.23C477.97 40.8703 475.94 40.5303 474.12 39.8403C472.3 39.1503 470.87 38.0203 469.81 36.4503C468.75 34.8803 468.23 32.7703 468.23 30.1203V27.8403C468.23 25.3403 468.721 23.2303 469.701 21.5103C470.681 19.7903 472.32 18.4903 474.63 17.6103C476.94 16.7303 480.1 16.2803 484.13 16.2803C485.75 16.2803 487.48 16.3703 489.32 16.5403C491.16 16.7103 492.9 16.9303 494.55 17.2003C496.19 17.4703 497.51 17.7803 498.49 18.1203V24.5203H481.93C480.51 24.5203 479.43 24.7503 478.69 25.2203C477.95 25.6903 477.591 26.5603 477.591 27.8303V29.0103C477.591 29.8903 477.76 30.5403 478.11 30.9603C478.45 31.3803 478.98 31.6703 479.69 31.8403C480.4 32.0103 481.3 32.1003 482.38 32.1003H488.711C492.731 32.1003 495.67 33.0203 497.51 34.8603C499.35 36.7003 500.271 39.2403 500.271 42.4803V46.0103C500.271 48.6603 499.641 50.7603 498.391 52.3003C497.141 53.8503 495.32 54.9503 492.94 55.6103C490.56 56.2703 487.651 56.6003 484.221 56.6003H484.201V56.6103Z" fill="white"/>
<path d="M519.83 56.1698C516.79 56.1698 514.32 55.7298 512.43 54.8398C510.54 53.9598 509.18 52.4798 508.34 50.4198C507.5 48.3598 507.14 45.5898 507.24 42.0998L507.61 25.3898H501.43V18.3998L507.98 16.6298L509.45 5.58984H518.06V16.6298H527.34V25.3898H518.06V42.0298C518.06 43.1098 518.16 43.9898 518.36 44.6798C518.55 45.3698 518.84 45.9198 519.21 46.3398C519.58 46.7598 520.01 47.0698 520.5 47.2598C520.99 47.4598 521.48 47.5798 521.97 47.6298L526.98 48.0698V56.1698H519.83Z" fill="white"/>
<path d="M566.938 56.5304C563.948 56.5304 560.798 56.4104 557.518 56.1604C554.238 55.9104 551.118 55.6404 548.168 55.3504V46.7404H567.378C569.148 46.7404 570.528 46.4404 571.538 45.8604C572.548 45.2704 573.258 44.5004 573.668 43.5404C574.088 42.5804 574.298 41.5904 574.298 40.5604V36.8104C574.298 35.0904 573.868 33.7304 573.008 32.7204C572.148 31.7104 570.718 31.2104 568.698 31.2104H564.428C562.808 31.2104 561.598 31.5404 560.788 32.2004C559.978 32.8604 559.448 33.8804 559.208 35.2604H548.898L550.448 1.69043H583.138V11.4804H559.798L559.208 24.4404C559.948 23.6604 560.958 23.0504 562.268 22.6404C563.568 22.2204 565.028 22.0104 566.648 22.0104H572.608C575.458 22.0104 577.808 22.5704 579.678 23.7004C581.538 24.8304 582.938 26.3604 583.878 28.3004C584.808 30.2404 585.278 32.4104 585.278 34.8104V42.8304C585.278 46.0204 584.568 48.6204 583.148 50.6304C581.728 52.6404 579.668 54.1304 576.968 55.0804C574.268 56.0404 570.928 56.5104 566.958 56.5104L566.938 56.5304Z" fill="white"/>
<path d="M604.63 56.46C601.59 56.46 599 55.93 596.86 54.88C594.73 53.83 593.11 52.24 592 50.13C590.9 48.02 590.34 45.44 590.34 42.4V15.9C590.34 12.71 590.9 10.02 592.03 7.84C593.16 5.66 594.81 4.01 597 2.91C599.18 1.81 601.75 1.25 604.69 1.25H616.03C619.12 1.25 621.69 1.83 623.72 2.98C625.76 4.13 627.29 5.8 628.32 7.99C629.35 10.17 629.87 12.81 629.87 15.9V42.4C629.87 46.96 628.66 50.45 626.23 52.85C623.8 55.26 620.4 56.46 616.03 56.46H604.62H604.63ZM607.21 46.67H613.1C615.11 46.67 616.6 46.18 617.55 45.2C618.51 44.22 618.99 42.75 618.99 40.78V16.93C618.99 14.77 618.5 13.25 617.52 12.37C616.54 11.49 615.21 11.04 613.55 11.04H606.85C605.03 11.04 603.65 11.53 602.69 12.51C601.73 13.49 601.25 14.96 601.25 16.93V40.71C601.25 42.77 601.77 44.28 602.8 45.24C603.83 46.2 605.3 46.68 607.22 46.68H607.21V46.67Z" fill="white"/>
<path d="M155.719 141.501V98.8408H172.339C173.579 98.8408 174.829 99.0108 176.089 99.3308C177.349 99.6608 178.519 100.281 179.609 101.191C180.689 102.101 181.559 103.441 182.199 105.201C182.839 106.961 183.159 109.281 183.159 112.141C183.159 115.001 182.809 117.401 182.109 119.201C181.409 121.001 180.499 122.391 179.379 123.361C178.259 124.331 177.049 124.991 175.749 125.341C174.449 125.691 173.219 125.861 172.059 125.861C171.479 125.861 170.599 125.861 169.419 125.831C168.239 125.811 166.969 125.771 165.609 125.711C164.249 125.651 162.989 125.591 161.799 125.541C160.619 125.481 159.719 125.411 159.099 125.341V141.501H155.719ZM159.089 122.841H171.639C173.109 122.841 174.469 122.531 175.709 121.911C176.949 121.291 177.939 120.211 178.669 118.681C179.399 117.151 179.769 114.971 179.769 112.141C179.769 109.311 179.399 107.271 178.669 105.781C177.929 104.291 176.989 103.261 175.849 102.701C174.709 102.141 173.459 101.861 172.099 101.861H159.079V122.841H159.089Z" fill="white"/>
<path d="M205.641 141.85C202.971 141.85 200.611 141.6 198.581 141.09C196.551 140.58 194.861 139.61 193.521 138.15C192.181 136.69 191.18 134.54 190.5 131.67C189.82 128.8 189.48 125.04 189.48 120.39C189.48 115.74 189.82 111.92 190.5 109.03C191.18 106.14 192.201 103.94 193.581 102.4C194.961 100.86 196.65 99.8305 198.67 99.2905C200.69 98.7505 203.011 98.4805 205.641 98.4805C208.271 98.4805 210.78 98.7505 212.82 99.2905C214.85 99.8305 216.54 100.87 217.88 102.4C219.22 103.93 220.211 106.14 220.841 109.03C221.481 111.92 221.8 115.7 221.8 120.39C221.8 125.08 221.47 128.8 220.81 131.67C220.15 134.54 219.14 136.7 217.79 138.15C216.43 139.6 214.75 140.58 212.73 141.09C210.71 141.59 208.351 141.85 205.641 141.85ZM205.641 138.83C207.931 138.83 209.88 138.61 211.51 138.16C213.14 137.72 214.46 136.85 215.49 135.57C216.52 134.29 217.26 132.44 217.73 130.02C218.19 127.6 218.43 124.39 218.43 120.4C218.43 116.41 218.191 112.86 217.701 110.35C217.211 107.83 216.46 105.94 215.43 104.68C214.4 103.42 213.09 102.58 211.48 102.15C209.87 101.72 207.921 101.51 205.641 101.51C203.551 101.51 201.701 101.72 200.091 102.15C198.481 102.58 197.141 103.42 196.081 104.68C195.011 105.94 194.21 107.83 193.67 110.35C193.13 112.87 192.86 116.22 192.86 120.4C192.86 124.58 193.081 127.6 193.531 130.02C193.971 132.44 194.701 134.29 195.711 135.57C196.721 136.85 198.03 137.71 199.66 138.16C201.29 138.61 203.281 138.83 205.651 138.83H205.641Z" fill="white"/>
<path d="M230.168 141.501V98.8408H246.728C248.008 98.8408 249.288 98.9908 250.568 99.2808C251.848 99.5708 253.008 100.131 254.058 100.971C255.108 101.801 255.938 103.031 256.558 104.661C257.178 106.291 257.488 108.421 257.488 111.051C257.488 113.491 257.218 115.481 256.678 117.011C256.138 118.541 255.438 119.731 254.588 120.581C253.738 121.431 252.808 122.041 251.798 122.411C250.788 122.781 249.838 123.021 248.948 123.141L257.898 141.501H254.528L245.748 123.481C245.088 123.481 244.238 123.481 243.188 123.451C242.138 123.431 241.038 123.411 239.878 123.391C238.718 123.371 237.568 123.341 236.448 123.301C235.328 123.261 234.358 123.241 233.538 123.241V141.491H230.168V141.501ZM233.538 120.691H246.328C247.378 120.691 248.358 120.571 249.288 120.341C250.218 120.111 251.048 119.651 251.788 118.971C252.528 118.291 253.098 117.311 253.498 116.031C253.908 114.751 254.108 113.091 254.108 111.031C254.108 108.971 253.898 107.471 253.468 106.261C253.038 105.061 252.458 104.141 251.728 103.501C250.988 102.861 250.158 102.421 249.228 102.191C248.298 101.961 247.328 101.841 246.318 101.841H233.528V120.691H233.538Z" fill="white"/>
<path d="M275.027 141.501V101.861H261.367V98.8408H292.057V101.861H278.397V141.501H275.027Z" fill="white"/>
<path d="M312.517 141.851C310.157 141.851 308.017 141.631 306.097 141.181C304.177 140.741 302.547 140.011 301.217 139.001C299.877 137.991 298.867 136.631 298.167 134.901C297.467 133.171 297.117 131.021 297.117 128.421V98.8408H300.487V128.421C300.487 131.131 300.957 133.231 301.907 134.731C302.857 136.221 304.237 137.271 306.037 137.871C307.837 138.471 309.997 138.771 312.517 138.771C315.037 138.771 317.247 138.471 319.027 137.871C320.807 137.271 322.177 136.221 323.127 134.731C324.077 133.241 324.547 131.141 324.547 128.421V98.8408H327.917V128.421C327.917 131.021 327.577 133.181 326.897 134.901C326.217 136.621 325.207 137.991 323.877 139.001C322.537 140.011 320.917 140.731 318.997 141.181C317.077 141.621 314.917 141.851 312.517 141.851Z" fill="white"/>
<path d="M349.648 141.79C346.938 141.83 344.678 141.44 342.878 140.63C341.078 139.82 339.648 138.53 338.608 136.77C337.568 135.01 336.828 132.74 336.398 129.97C335.968 127.2 335.758 123.88 335.758 120C335.758 116.12 335.978 113.12 336.428 110.41C336.878 107.7 337.628 105.46 338.698 103.7C339.768 101.94 341.208 100.63 343.028 99.78C344.848 98.93 347.118 98.5 349.828 98.5C351.188 98.5 352.668 98.55 354.278 98.65C355.888 98.75 357.488 98.9 359.068 99.12C360.658 99.33 362.088 99.57 363.368 99.85V102.35C362.628 102.27 361.548 102.17 360.118 102.03C358.688 101.89 357.108 101.78 355.378 101.68C353.658 101.58 351.938 101.53 350.238 101.53C347.368 101.53 345.128 102.16 343.498 103.42C341.868 104.68 340.738 106.67 340.098 109.38C339.458 112.09 339.138 115.68 339.138 120.13C339.138 123.7 339.308 126.67 339.658 129.05C340.008 131.43 340.598 133.34 341.428 134.77C342.258 136.2 343.408 137.22 344.858 137.82C346.308 138.42 348.158 138.72 350.408 138.72C352.348 138.72 354.348 138.45 356.428 137.91C358.498 137.37 360.288 136.79 361.808 136.17V122.28H350.648V119.84C351.388 119.72 352.258 119.63 353.268 119.55C354.278 119.47 355.358 119.4 356.518 119.35C357.678 119.29 358.878 119.26 360.118 119.26C361.088 119.26 361.998 119.28 362.848 119.32C363.698 119.36 364.438 119.42 365.058 119.49V141.52H362.618L362.038 138.5C360.608 139.2 358.788 139.92 356.578 140.65C354.368 141.39 352.068 141.77 349.658 141.81V141.79H349.648Z" fill="white"/>
<path d="M372.079 141.501L387.129 98.8408H391.489L406.539 141.501H402.989L398.279 128.251H380.259L375.609 141.501H372.059H372.079ZM381.149 125.231H397.309L389.289 101.871L381.149 125.231Z" fill="white"/>
<path d="M421.657 141.501C420.187 141.501 418.827 141.271 417.587 140.801C416.347 140.331 415.357 139.511 414.627 138.331C413.887 137.151 413.527 135.511 413.527 133.421V98.8408H416.897V133.011C416.897 134.521 417.157 135.661 417.687 136.441C418.207 137.221 418.887 137.731 419.717 137.981C420.547 138.231 421.397 138.361 422.247 138.361H438.057V141.501H421.657Z" fill="white"/>
<path d="M0 141.52V134.54L14.49 120.16C15.66 119.03 16.62 117.97 17.37 116.99C18.11 116.01 18.67 115.05 19.04 114.09C19.41 113.13 19.6 112.11 19.6 111.01C19.6 109.91 19.39 109.04 18.98 108.28C18.57 107.52 17.9 106.94 16.98 106.55C16.06 106.16 14.8 105.96 13.2 105.96H1V99.1502C2.88 98.8002 4.96 98.4702 7.25 98.1802C9.54 97.8902 12.09 97.7402 14.91 97.7402C18.31 97.7402 20.98 98.2102 22.92 99.1502C24.86 100.09 26.23 101.44 27.06 103.2C27.88 104.96 28.29 107.09 28.29 109.6C28.29 111.56 28.03 113.34 27.5 114.94C26.97 116.54 26.2 118.08 25.18 119.55C24.16 121.02 22.87 122.49 21.31 123.98L11.57 133.66H29.64V141.52H0.0100098H0Z" fill="white"/>
<path d="M46.2902 141.75C43.8602 141.75 41.8002 141.33 40.1002 140.49C38.4002 139.65 37.1102 138.39 36.2302 136.71C35.3502 135.03 34.9102 132.97 34.9102 130.55V109.43C34.9102 106.89 35.3602 104.74 36.2602 103C37.1602 101.26 38.4802 99.95 40.2202 99.07C41.9602 98.19 44.0002 97.75 46.3502 97.75H55.3902C57.8502 97.75 59.9001 98.21 61.5201 99.13C63.1401 100.05 64.3702 101.38 65.1902 103.12C66.0102 104.86 66.4202 106.96 66.4202 109.43V130.55C66.4202 134.19 65.4501 136.97 63.5201 138.88C61.5801 140.8 58.8702 141.76 55.3902 141.76H46.2902V141.75ZM48.3502 133.95H53.0402C54.6402 133.95 55.8301 133.56 56.5901 132.78C57.3501 132 57.7302 130.82 57.7302 129.26V110.25C57.7302 108.53 57.3402 107.32 56.5602 106.61C55.7802 105.91 54.7202 105.55 53.3902 105.55H48.0501C46.6001 105.55 45.5002 105.94 44.7302 106.72C43.9702 107.5 43.5901 108.68 43.5901 110.24V129.19C43.5901 130.83 44.0002 132.04 44.8202 132.8C45.6402 133.56 46.8101 133.94 48.3401 133.94L48.3502 133.95Z" fill="white"/>
<path d="M72.3516 141.52V134.54L86.8416 120.16C88.0116 119.03 88.9716 117.97 89.7216 116.99C90.4616 116.01 91.0216 115.05 91.3916 114.09C91.7616 113.13 91.9516 112.11 91.9516 111.01C91.9516 109.91 91.7416 109.04 91.3316 108.28C90.9216 107.52 90.2516 106.94 89.3316 106.55C88.4116 106.16 87.1515 105.96 85.5515 105.96H73.3516V99.1502C75.2316 98.8002 77.3116 98.4702 79.6016 98.1802C81.8916 97.8902 84.4416 97.7402 87.2616 97.7402C90.6616 97.7402 93.3316 98.2102 95.2716 99.1502C97.2116 100.09 98.5815 101.44 99.4115 103.2C100.232 104.96 100.642 107.09 100.642 109.6C100.642 111.56 100.382 113.34 99.8515 114.94C99.3215 116.54 98.5516 118.08 97.5316 119.55C96.5116 121.02 95.2215 122.49 93.6615 123.98L83.9216 133.66H101.992V141.52H72.3616H72.3516Z" fill="white"/>
<path d="M122.872 141.87C119.742 141.87 116.762 141.76 113.922 141.55C111.082 141.33 108.532 141.03 106.262 140.64V133.66H119.582C121.182 133.66 122.492 133.54 123.512 133.31C124.532 133.08 125.282 132.66 125.772 132.08C126.262 131.49 126.502 130.67 126.502 129.61V127.79C126.502 126.73 126.252 125.9 125.742 125.3C125.232 124.69 124.562 124.24 123.722 123.95C122.882 123.66 121.912 123.49 120.822 123.45L110.142 123.04V116.35L120.472 115.76C122.232 115.68 123.602 115.37 124.582 114.82C125.562 114.27 126.052 113.33 126.052 112V110.53C126.052 108.97 125.532 107.81 124.492 107.07C123.452 106.33 121.722 105.95 119.302 105.95H107.212V99.0302C109.442 98.6802 111.862 98.3502 114.492 98.0602C117.112 97.7702 119.872 97.6602 122.762 97.7402C125.302 97.7802 127.452 98.2002 129.212 99.0002C130.972 99.8002 132.312 100.99 133.232 102.58C134.152 104.16 134.612 106.13 134.612 108.48V111.71C134.612 112.81 134.482 113.8 134.232 114.7C133.982 115.6 133.592 116.37 133.092 117.02C132.582 117.67 131.992 118.21 131.332 118.66C130.662 119.11 129.962 119.45 129.222 119.69C130.042 119.89 130.812 120.26 131.542 120.8C132.262 121.35 132.902 122 133.452 122.77C134.002 123.53 134.442 124.44 134.772 125.5C135.102 126.56 135.272 127.71 135.272 128.96V131.19C135.272 134.67 134.172 137.32 131.982 139.14C129.792 140.96 126.762 141.87 122.882 141.87H122.872Z" fill="white"/>
<path d="M229.719 226.91C229.719 223.39 232.569 220.54 236.089 220.54C239.609 220.54 242.459 223.39 242.459 226.91C242.459 230.43 239.609 233.28 236.089 233.28C232.569 233.28 229.719 230.43 229.719 226.91Z" fill="white"/>
<path d="M26.6392 210.039C26.6392 206.009 25.8592 203.009 24.2992 201.059C22.7392 199.109 20.3792 198.139 17.1992 198.139H13.8192V222.799H16.4092C19.9392 222.799 22.5292 221.749 24.1692 219.649C25.8192 217.549 26.6392 214.349 26.6392 210.029M38.6992 209.619C38.6992 216.969 36.7192 222.629 32.7692 226.599C28.8192 230.579 23.2692 232.559 16.1092 232.559H2.19922V188.529H17.0792C23.9792 188.529 29.3092 190.339 33.0692 193.949C36.8192 197.569 38.6992 202.779 38.6992 209.609" fill="white"/>
<path d="M77.2305 232.57H88.3004V188.35H77.2305V232.57Z" fill="white"/>
<path d="M103.848 216.079C103.848 218.899 104.218 221.049 104.948 222.529C105.688 224.009 106.918 224.749 108.658 224.749C110.398 224.749 111.588 224.009 112.298 222.529C113.008 221.049 113.358 218.899 113.358 216.079C113.358 213.259 112.998 211.159 112.288 209.729C111.568 208.299 110.348 207.579 108.608 207.579C106.868 207.579 105.698 208.289 104.958 209.709C104.218 211.129 103.858 213.249 103.858 216.069M124.618 216.079C124.618 221.449 123.208 225.639 120.388 228.639C117.568 231.649 113.618 233.149 108.538 233.149C103.458 233.149 99.7976 231.609 96.9176 228.539C94.0376 225.469 92.5977 221.309 92.5977 216.079C92.5977 210.849 94.0077 206.569 96.8277 203.599C99.6477 200.629 103.608 199.149 108.708 199.149C111.858 199.149 114.648 199.839 117.058 201.209C119.478 202.579 121.338 204.549 122.648 207.109C123.958 209.669 124.618 212.659 124.618 216.079Z" fill="white"/>
<path d="M129.02 232.57H140.09V199.729H129.02V232.57Z" fill="white"/>
<path d="M129.02 195.75H140.09V188.35H129.02V195.75Z" fill="white"/>
<path d="M162.51 224.19C164 224.19 165.78 223.81 167.86 223.06V231.32C166.37 231.98 164.95 232.45 163.6 232.72C162.25 233 160.67 233.14 158.86 233.14C155.14 233.14 152.46 232.21 150.82 230.34C149.18 228.48 148.36 225.61 148.36 221.75V208.21H144.48V199.72H148.36V191.33L159.51 189.39V199.72H166.57V208.21H159.51V220.99C159.51 223.12 160.51 224.18 162.51 224.18" fill="white"/>
<path d="M188.128 224.189C189.618 224.189 191.398 223.809 193.478 223.059V231.319C191.988 231.979 190.568 232.449 189.218 232.719C187.868 232.999 186.288 233.139 184.478 233.139C180.758 233.139 178.078 232.209 176.438 230.339C174.798 228.469 173.978 225.609 173.978 221.749V208.209H170.098V199.719H173.978V191.209L185.128 189.399V199.729H192.198V208.219H185.128V220.999C185.128 223.129 186.128 224.189 188.128 224.189Z" fill="white"/>
<path d="M207.449 212.079C207.599 210.279 208.119 208.959 208.989 208.119C209.869 207.279 210.959 206.859 212.259 206.859C213.679 206.859 214.809 207.329 215.639 208.279C216.479 209.229 216.919 210.489 216.959 212.079H207.449ZM223.059 203.019C220.429 200.439 216.699 199.149 211.869 199.149C206.789 199.149 202.889 200.629 200.149 203.599C197.409 206.569 196.039 210.819 196.039 216.369C196.039 221.919 197.519 225.879 200.469 228.789C203.419 231.699 207.569 233.149 212.909 233.149C215.469 233.149 217.679 232.969 219.529 232.629C221.369 232.289 223.149 231.659 224.879 230.759L223.179 223.359C221.929 223.869 220.729 224.269 219.599 224.529C217.969 224.909 216.179 225.099 214.239 225.099C212.109 225.099 210.419 224.579 209.189 223.539C207.959 222.499 207.299 221.049 207.219 219.219H227.009V214.179C227.009 209.329 225.689 205.609 223.059 203.029" fill="white"/>
<path d="M53.3888 212.079C53.5388 210.279 54.0587 208.959 54.9287 208.119C55.8087 207.279 56.8988 206.859 58.1988 206.859C59.6188 206.859 60.7388 207.329 61.5788 208.279C62.4188 209.229 62.8587 210.489 62.8987 212.079H53.3888ZM68.9987 203.019C66.3687 200.439 62.6387 199.149 57.7987 199.149C52.7187 199.149 48.8188 200.629 46.0788 203.599C43.3388 206.569 41.9688 210.819 41.9688 216.369C41.9688 221.919 43.4487 225.879 46.3987 228.789C49.3487 231.699 53.4987 233.149 58.8387 233.149C61.3987 233.149 63.6087 232.969 65.4587 232.629C67.2987 232.289 69.0787 231.659 70.8087 230.759L69.1088 223.359C67.8588 223.869 66.6588 224.269 65.5388 224.529C63.9088 224.909 62.1187 225.099 60.1787 225.099C58.0487 225.099 56.3588 224.579 55.1288 223.539C53.8888 222.499 53.2388 221.049 53.1588 219.219H72.9488V214.179C72.9488 209.329 71.6287 205.609 68.9987 203.029" fill="white"/>
</svg>
